<svg version="1.0" xmlns="http://www.w3.org/2000/svg"
 width="1280.000000pt" height="1280.000000pt" viewBox="0 0 1280.000000 1280.000000"
 preserveAspectRatio="xMidYMid meet">
<metadata>
Created by potrace 1.15, written by Peter Selinger 2001-2017
</metadata>
<g transform="translate(0.000000,1280.000000) scale(0.100000,-0.100000)"
fill="#ffffff">
<path d="M6220 11264 c-306 -38 -562 -121 -793 -257 -615 -363 -980 -1025
-954 -1732 15 -400 141 -764 377 -1085 80 -109 311 -338 417 -413 244 -173
510 -285 807 -339 173 -32 479 -32 652 0 297 54 563 166 807 339 106 75 337
304 417 413 179 244 297 518 352 820 18 94 22 154 22 330 0 244 -16 356 -78
562 -186 611 -672 1098 -1283 1284 -183 55 -320 76 -528 79 -99 2 -196 1 -215
-1z"/>
<path d="M4775 6814 c-113 -15 -243 -40 -325 -64 -712 -207 -1218 -811 -1299
-1552 -7 -65 -11 -689 -11 -1883 l0 -1785 3260 0 3260 0 0 1785 c0 1185 -4
1818 -11 1883 -80 740 -600 1357 -1309 1555 -232 65 -102 61 -1900 63 -899 0
-1648 0 -1665 -2z"/>
</g>
</svg>